<svg id="_001-data" data-name="001-data" xmlns="http://www.w3.org/2000/svg" width="100" height="99.892" viewBox="0 0 100 99.892">
  <path id="Path_1565" data-name="Path 1565" d="M38.957,140.5a1.658,1.658,0,1,0,2.345-2.345l-4.026-4.026L41.3,130.1a1.658,1.658,0,0,0-2.345-2.345l-5.2,5.2a1.658,1.658,0,0,0,0,2.345Zm0,0" transform="translate(-25.912 -102.964)" fill="#fff"/>
  <path id="Path_1566" data-name="Path 1566" d="M117.442,134.122l-4.026,4.026a1.658,1.658,0,1,0,2.345,2.345l5.2-5.2a1.657,1.657,0,0,0,0-2.344l-5.2-5.2a1.658,1.658,0,1,0-2.344,2.345Zm0,0" transform="translate(-91.112 -102.961)" fill="#fff"/>
  <path id="Path_1567" data-name="Path 1567" d="M77.469,140.862a1.658,1.658,0,0,0,2.149-.937l4.083-10.4a1.657,1.657,0,1,0-3.085-1.213l-4.084,10.4A1.658,1.658,0,0,0,77.469,140.862Zm0,0" transform="translate(-59.51 -102.959)" fill="#fff"/>
  <path id="Path_1568" data-name="Path 1568" d="M39.173,221.531H50.342a1.658,1.658,0,0,0,0-3.316H39.173a1.658,1.658,0,0,0,0,3.316Zm0,0" transform="translate(-29.215 -175.862)" fill="#fff"/>
  <path id="Path_1569" data-name="Path 1569" d="M136.8,218.215H117.169a1.658,1.658,0,0,0,0,3.316H136.8a1.658,1.658,0,1,0,0-3.316Zm0,0" transform="translate(-93.712 -175.863)" fill="#fff"/>
  <path id="Path_1570" data-name="Path 1570" d="M39.173,253.137h4.758a1.658,1.658,0,0,0,0-3.316H39.173a1.658,1.658,0,0,0,0,3.316Zm0,0" transform="translate(-29.215 -201.32)" fill="#fff"/>
  <path id="Path_1571" data-name="Path 1571" d="M178.505,249.82a1.658,1.658,0,0,0,0,3.316h2.9a1.658,1.658,0,1,0,0-3.316Zm0,0" transform="translate(-142.573 -201.319)" fill="#fff"/>
  <path id="Path_1572" data-name="Path 1572" d="M102.858,251.478a1.658,1.658,0,0,0-1.658-1.658H86.97a1.658,1.658,0,0,0,0,3.316H101.2A1.658,1.658,0,0,0,102.858,251.478Zm0,0" transform="translate(-69.055 -201.32)" fill="#fff"/>
  <path id="Path_1573" data-name="Path 1573" d="M213.7,251.478a1.658,1.658,0,0,0,1.658,1.658h5.426a1.658,1.658,0,1,0,0-3.316h-5.426A1.658,1.658,0,0,0,213.7,251.478Zm0,0" transform="translate(-172.427 -201.32)" fill="#fff"/>
  <path id="Path_1574" data-name="Path 1574" d="M167.057,152.594h5.724a1.658,1.658,0,1,0,0-3.316h-5.724a1.658,1.658,0,1,0,0,3.316Zm0,0" transform="translate(-133.466 -120.336)" fill="#fff"/>
  <path id="Path_1575" data-name="Path 1575" d="M221.9,152.594h34.924a1.658,1.658,0,0,0,0-3.316H221.9a1.658,1.658,0,1,0,0,3.316Zm0,0" transform="translate(-180.139 -120.336)" fill="#fff"/>
  <path id="Path_1576" data-name="Path 1576" d="M305.988,182.246H291.841a1.658,1.658,0,0,0,0,3.316h14.147a1.658,1.658,0,0,0,0-3.316Zm0,0" transform="translate(-234.878 -146.891)" fill="#fff"/>
  <path id="Path_1577" data-name="Path 1577" d="M250.747,182.246h-4.863a1.658,1.658,0,0,0,0,3.316h4.863a1.658,1.658,0,0,0,0-3.316Zm0,0" transform="translate(-197.018 -146.891)" fill="#fff"/>
  <path id="Path_1578" data-name="Path 1578" d="M167.057,185.562h11.913a1.658,1.658,0,0,0,0-3.316H167.057a1.658,1.658,0,1,0,0,3.316Zm0,0" transform="translate(-133.76 -146.89)" fill="#fff"/>
  <path id="Path_1579" data-name="Path 1579" d="M112.072,281.16H100.9a1.658,1.658,0,1,0,0,3.315h11.168a1.658,1.658,0,1,0,0-3.315Zm0,0" transform="translate(-80.239 -226.563)" fill="#fff"/>
  <path id="Path_1580" data-name="Path 1580" d="M47.753,281.16h-8.58a1.658,1.658,0,1,0,0,3.315h8.58a1.658,1.658,0,1,0,0-3.315Zm0,0" transform="translate(-29.215 -226.563)" fill="#fff"/>
  <path id="Path_1581" data-name="Path 1581" d="M191.536,281.16H176.947a1.658,1.658,0,1,0,0,3.315h14.589a1.658,1.658,0,1,0,0-3.315Zm0,0" transform="translate(-141.906 -226.563)" fill="#fff"/>
  <path id="Path_1582" data-name="Path 1582" d="M303.982,242.668H296a1.658,1.658,0,0,0,0,3.316h7.978a1.658,1.658,0,0,0,0-3.316Zm0,0" transform="translate(-237.702 -195.559)" fill="#fff"/>
  <path id="Path_1583" data-name="Path 1583" d="M394.634,245.984H405.9a1.658,1.658,0,1,0,0-3.316H394.634a1.658,1.658,0,0,0,0,3.316Zm0,0" transform="translate(-319.309 -195.559)" fill="#fff"/>
  <path id="Path_1584" data-name="Path 1584" d="M360.095,242.668h-2.581a1.658,1.658,0,1,0,0,3.316h2.581a1.658,1.658,0,0,0,0-3.316Zm0,0" transform="translate(-286.859 -195.559)" fill="#fff"/>
  <path id="Path_1585" data-name="Path 1585" d="M296.005,327.644h7.978a1.658,1.658,0,1,0,0-3.315h-7.978a1.658,1.658,0,1,0,0,3.315Zm0,0" transform="translate(-237.703 -261.334)" fill="#fff"/>
  <path id="Path_1586" data-name="Path 1586" d="M394.634,327.644H405.9a1.658,1.658,0,1,0,0-3.315H394.634a1.658,1.658,0,1,0,0,3.315Zm0,0" transform="translate(-319.309 -261.334)" fill="#fff"/>
  <path id="Path_1587" data-name="Path 1587" d="M357.517,327.644H360.1a1.658,1.658,0,1,0,0-3.315h-2.581a1.658,1.658,0,1,0,0,3.315Zm0,0" transform="translate(-286.862 -261.334)" fill="#fff"/>
  <path id="Path_1588" data-name="Path 1588" d="M303.982,405.988H296a1.658,1.658,0,1,0,0,3.315h7.978a1.658,1.658,0,0,0,0-3.315Zm0,0" transform="translate(-237.702 -327.108)" fill="#fff"/>
  <path id="Path_1589" data-name="Path 1589" d="M405.9,405.988H394.634a1.658,1.658,0,0,0,0,3.315H405.9a1.658,1.658,0,1,0,0-3.315Zm0,0" transform="translate(-319.309 -327.108)" fill="#fff"/>
  <path id="Path_1590" data-name="Path 1590" d="M360.095,405.988h-2.581a1.658,1.658,0,1,0,0,3.315h2.581a1.658,1.658,0,0,0,0-3.315Zm0,0" transform="translate(-286.859 -327.108)" fill="#fff"/>
  <path id="Path_1591" data-name="Path 1591" d="M93.559.5H6.441A6.449,6.449,0,0,0,0,6.941V77.756A6.449,6.449,0,0,0,6.441,84.2h5.508a1.463,1.463,0,1,0,0-2.927H6.441a3.518,3.518,0,0,1-3.514-3.514V72.2h53.32v2.522h-1.16A2.881,2.881,0,0,0,52.208,77.6V81.27H20.847a1.463,1.463,0,1,0,0,2.927H34.919v5.249H30.5a5.352,5.352,0,0,0-5.346,5.346v3.162a2.442,2.442,0,0,0,2.439,2.439H72.3a2.442,2.442,0,0,0,2.439-2.439V94.791a5.352,5.352,0,0,0-5.346-5.346H64.97V87.6H92.026A2.881,2.881,0,0,0,94.9,84.717v-.689a6.45,6.45,0,0,0,4.985-6.272L100,6.941A6.447,6.447,0,0,0,93.559.5ZM55.135,68.719V61.7H91.977v7.015Zm4.038-9.943V55.7H87.938v3.079ZM87.938,71.646v3.08H59.174v-3.08ZM37.845,84.2H52.208v.521A2.881,2.881,0,0,0,55.086,87.6h6.957v1.85h-24.2Zm31.544,8.176a2.421,2.421,0,0,1,2.419,2.419v2.674H28.08V94.791A2.422,2.422,0,0,1,30.5,92.373Zm22.588-7.7H55.135V77.653H91.977Zm4.985-6.912A3.515,3.515,0,0,1,94.9,80.949V77.6a2.882,2.882,0,0,0-2.879-2.878h-1.16V72.2h6.1Zm0-8.479H94.856c.03-.166.048-7.622.048-7.622a2.882,2.882,0,0,0-2.879-2.879h-1.16V55.7h1.16A2.882,2.882,0,0,0,94.9,52.819V45.706a2.882,2.882,0,0,0-2.879-2.879H83.759a1.464,1.464,0,0,0,0,2.927h8.218V52.77H55.135V45.755H74.653a1.464,1.464,0,0,0,0-2.927H55.086a2.882,2.882,0,0,0-2.879,2.879v7.113A2.882,2.882,0,0,0,55.086,55.7h1.16v3.079h-1.16a2.882,2.882,0,0,0-2.879,2.879s.018,7.456.048,7.622H2.927V20.408H96.962Zm0-51.8H3.034V6.941A3.518,3.518,0,0,1,6.549,3.427h86.9a3.518,3.518,0,0,1,3.514,3.514Zm0,0" transform="translate(0 -0.5)" fill="#fff"/>
  <path id="Path_1592" data-name="Path 1592" d="M38.138,29.262A4.865,4.865,0,1,0,43,34.126,4.87,4.87,0,0,0,38.138,29.262Zm0,6.414a1.55,1.55,0,1,1,1.55-1.55A1.551,1.551,0,0,1,38.138,35.676Zm0,0" transform="translate(-25.912 -22.898)" fill="#fff"/>
  <path id="Path_1593" data-name="Path 1593" d="M94.123,29.262a4.865,4.865,0,1,0,4.865,4.865A4.871,4.871,0,0,0,94.123,29.262Zm0,6.414a1.55,1.55,0,1,1,1.55-1.55A1.551,1.551,0,0,1,94.123,35.676Zm0,0" transform="translate(-72.042 -22.898)" fill="#fff"/>
  <path id="Path_1594" data-name="Path 1594" d="M150.11,29.262a4.865,4.865,0,1,0,4.866,4.865A4.87,4.87,0,0,0,150.11,29.262Zm0,6.414a1.55,1.55,0,1,1,1.55-1.55A1.552,1.552,0,0,1,150.11,35.676Zm0,0" transform="translate(-117.231 -22.898)" fill="#fff"/>
</svg>
