<svg id="_002-sketchbook" data-name="002-sketchbook" xmlns="http://www.w3.org/2000/svg" width="74.721" height="81.891" viewBox="0 0 74.721 81.891">
  <path id="Path_1635" data-name="Path 1635" d="M420.448,31.305h-4.524a3.949,3.949,0,0,0-3.945,3.945V93.83a6.91,6.91,0,0,0,.337,2.132l3.375,10.413a2.623,2.623,0,0,0,4.99,0l3.375-10.413a6.909,6.909,0,0,0,.337-2.132V35.249A3.949,3.949,0,0,0,420.448,31.305Zm1.381,63.732c-.1.356.039-.107-1.849,5.72a8.585,8.585,0,0,0-3.587,0c-1.747-5.392-1.79-5.505-1.85-5.722C414.538,95.02,421.831,95.029,421.828,95.037Zm-3.431,10.6a.2.2,0,0,1-.213.154.2.2,0,0,1-.206-.136c-.076-.208.242.749-.842-2.6a6.212,6.212,0,0,1,2.1,0Zm-.212-52.8a1.2,1.2,0,0,0-1.2,1.2v38.6h-2.608V40.288h2.608v8.144a1.2,1.2,0,1,0,2.4,0V40.288h2.608V92.63h-2.608V54.03A1.2,1.2,0,0,0,418.185,52.831Zm-3.807-17.581a1.547,1.547,0,0,1,1.545-1.545h4.524a1.547,1.547,0,0,1,1.545,1.545v2.639h-7.615Z" transform="translate(-349.671 -26.298)" fill="#fff"/>
  <path id="Path_1636" data-name="Path 1636" d="M76.027,5.007H74.353V3.576a3.576,3.576,0,1,0-7.153,0V5.007H64.4V3.576a3.576,3.576,0,0,0-7.153,0V5.007h-2.8V3.576a3.576,3.576,0,1,0-7.153,0V5.007H44.5V3.576a3.576,3.576,0,1,0-7.153,0V5.007h-2.8V3.576a3.576,3.576,0,1,0-7.153,0V5.007H25.715a3.306,3.306,0,0,0-3.3,3.3v6.1a1.2,1.2,0,0,0,2.4,0v-6.1a.9.9,0,0,1,.9-.9h1.674V8.837a3.576,3.576,0,1,0,7.153,0V7.406h2.8V8.837a3.576,3.576,0,1,0,7.153,0V7.406h2.8V8.837a3.576,3.576,0,1,0,7.153,0V7.406h2.8V8.837a3.576,3.576,0,1,0,7.153,0V7.406h2.8V8.837a3.576,3.576,0,1,0,7.153,0V7.406h1.674a.9.9,0,0,1,.9.9V78.588a.9.9,0,0,1-.9.9H25.715a.9.9,0,0,1-.9-.9V20.01a1.2,1.2,0,1,0-2.4,0V78.589a3.306,3.306,0,0,0,3.3,3.3H76.027a3.306,3.306,0,0,0,3.3-3.3V8.309A3.306,3.306,0,0,0,76.027,5.007ZM32.143,8.837a1.177,1.177,0,1,1-2.355,0V3.576a1.177,1.177,0,1,1,2.355,0Zm9.953,0a1.177,1.177,0,1,1-2.355,0V3.576a1.177,1.177,0,1,1,2.355,0v5.26Zm9.953,0a1.177,1.177,0,1,1-2.355,0V3.576a1.177,1.177,0,1,1,2.355,0v5.26Zm9.953,0a1.177,1.177,0,1,1-2.355,0V3.576a1.177,1.177,0,1,1,2.355,0Zm9.952,0a1.177,1.177,0,1,1-2.355,0V3.576a1.177,1.177,0,1,1,2.355,0Z" transform="translate(-22.413)" fill="#fff"/>
  <path id="Path_1637" data-name="Path 1637" d="M145.381,138.954a1.2,1.2,0,0,0-1.7,0l-5.575,5.574a9.307,9.307,0,0,0,6.582,15.89h6.54a6.91,6.91,0,0,1,4.885,11.794,1.2,1.2,0,1,0,1.7,1.7l5.574-5.574a9.306,9.306,0,0,0-6.582-15.89h-6.54a6.91,6.91,0,0,1-4.885-11.794A1.2,1.2,0,0,0,145.381,138.954Zm4.885,15.89h6.54a6.91,6.91,0,0,1,4.885,11.794l-1.136,1.136a9.311,9.311,0,0,0-9.323-9.755h-6.54a6.91,6.91,0,0,1-4.885-11.794l1.136-1.136A9.311,9.311,0,0,0,150.266,154.844Z" transform="translate(-117.298 -116.434)" fill="#fff"/>
  <path id="Path_1638" data-name="Path 1638" d="M80.911,237.009a1.2,1.2,0,1,0-1.7-1.69l-4.142,4.142a7.232,7.232,0,0,0,5.115,12.349H90.724a4.835,4.835,0,0,1,3.418,8.253,1.2,1.2,0,0,0,1.7,1.7l4.148-4.148a7.232,7.232,0,0,0-5.115-12.348H92.5a1.2,1.2,0,0,0,0,2.4h2.369a4.835,4.835,0,0,1,3.418,8.253l-.329.329a7.212,7.212,0,0,0-7.238-6.833H80.181a4.835,4.835,0,0,1-3.418-8.253l.329-.329a7.212,7.212,0,0,0,7.238,6.833h2.415a1.2,1.2,0,1,0,0-2.4H84.33a4.836,4.836,0,0,1-3.418-8.253Z" transform="translate(-64.852 -197.381)" fill="#fff"/>
</svg>
