<svg id="_002-phone" data-name="002-phone" xmlns="http://www.w3.org/2000/svg" width="100" height="115.341" viewBox="0 0 100 115.341">
  <path id="Path_1595" data-name="Path 1595" d="M100,78.359a22.117,22.117,0,0,0-.766-5.745,1.719,1.719,0,1,0-3.32.9,18.767,18.767,0,0,1,.647,4.854A18.109,18.109,0,0,1,85.967,94.907a1.72,1.72,0,0,0,1.427,3.13,21.525,21.525,0,0,0,4.652-2.892,33.526,33.526,0,0,1-51.756,7.878h16.7a8.382,8.382,0,0,0,8.372-8.372v-.5a8.471,8.471,0,0,0-1.644-4.982c-4.883-6.757-4.46-16.846.964-22.97a18.668,18.668,0,0,1,2.884-2.636,1.719,1.719,0,0,0,.2-2.6L54.968,48.171a6.758,6.758,0,0,1,9.556-9.558l9.242,9.242.008.008L91.088,65.176a18.749,18.749,0,0,1,2.179,2.619,1.72,1.72,0,1,0,2.834-1.95,22.146,22.146,0,0,0-2.581-3.1L76.705,45.93V8.249A8.258,8.258,0,0,0,68.458,0H29.6a1.72,1.72,0,1,0,0,3.44H68.458a4.814,4.814,0,0,1,4.807,4.81v1.77H11.528V8.249a4.815,4.815,0,0,1,4.81-4.81h6.383a1.72,1.72,0,0,0,0-3.44H16.338a8.259,8.259,0,0,0-8.249,8.25V33.891A9.806,9.806,0,0,0,4.266,51.638,9.807,9.807,0,0,0,8.089,69.386V94.777a8.257,8.257,0,0,0,8.249,8.247H35.467c.46.515.93,1.013,1.4,1.486A36.977,36.977,0,0,0,99.99,79c.005-.212.009-.425.008-.638Zm-26.733-64.9V42.491l-6.309-6.31A10.2,10.2,0,0,0,52.535,50.6L63.979,62.047a21.125,21.125,0,0,0-6.894,19.118H11.528V13.459ZM3.439,43.548a6.381,6.381,0,0,1,4.651-6.133V49.68a6.38,6.38,0,0,1-4.651-6.133Zm0,16.181A6.381,6.381,0,0,1,8.089,53.6V65.861a6.381,6.381,0,0,1-4.651-6.133Zm8.09,35.048V84.6H57.774a20.965,20.965,0,0,0,3.156,6.583,5.055,5.055,0,0,1,.992,2.966v.5a4.937,4.937,0,0,1-4.932,4.932H16.338a4.814,4.814,0,0,1-4.81-4.807Zm0,0" transform="translate(0.001 0)" fill="#fff"/>
  <path id="Path_1596" data-name="Path 1596" d="M169.32,400.289H159.048a1.689,1.689,0,0,0,0,3.378H169.32a1.689,1.689,0,0,0,0-3.378Zm0,0" transform="translate(-121.807 -310.064)" fill="#fff"/>
</svg>
