<svg id="_003-paint" data-name="003-paint" xmlns="http://www.w3.org/2000/svg" width="100" height="108.117" viewBox="0 0 100 108.117">
  <path id="Path_1597" data-name="Path 1597" d="M405.254,23.8H392.339a1.659,1.659,0,0,0,0,3.319h12.915a.554.554,0,0,1,.553.553V92.686a1.659,1.659,0,1,0,3.319,0V27.673a3.875,3.875,0,0,0-3.872-3.872Zm0,0" transform="translate(-309.127 -18.535)" fill="#fff"/>
  <path id="Path_1598" data-name="Path 1598" d="M98.916,76.088a1.584,1.584,0,0,0-1.584,1.584V99.036a5.914,5.914,0,1,1-11.829,0V63.808a9.082,9.082,0,0,0-18.164,0V74.52a5.915,5.915,0,0,1-11.829,0V66.615l8.061-8.062a4.281,4.281,0,0,0,1.123-4.063L84.122,35.061a4.29,4.29,0,0,0,0-6.06L63.314,8.194H77.579a1.584,1.584,0,1,0,0-3.168H60.147L56.374,1.254a4.29,4.29,0,0,0-6.06,0L30.888,20.68a4.319,4.319,0,0,0-1.035-.13,4.257,4.257,0,0,0-3.03,1.255l-8.4,8.4a4.289,4.289,0,0,0,0,6.059L29.564,47.412A89.075,89.075,0,0,1,12.479,60.333a26.78,26.78,0,0,0-5.316,4.153,23.771,23.771,0,0,0-6.117,9.758c-1.06,3.641-.564,6.727,1.4,8.688A7.1,7.1,0,0,0,7.62,84.882c3.036,0,6.665-1.373,10.223-4.029a1.584,1.584,0,1,0-1.895-2.538c-4.528,3.379-9.265,4.379-11.266,2.379-1.09-1.091-1.307-3.118-.6-5.563a20.571,20.571,0,0,1,5.316-8.4,23.549,23.549,0,0,1,4.683-3.663A92.247,92.247,0,0,0,31.8,49.652l3.921,3.92A92.245,92.245,0,0,0,22.312,71.29a22.318,22.318,0,0,1-1.72,2.5,1.584,1.584,0,0,0,2.486,1.963A25.362,25.362,0,0,0,25.042,72.9,89.092,89.092,0,0,1,37.964,55.811L49.108,66.955a4.253,4.253,0,0,0,3.03,1.255c.068,0,.136-.007.2-.01V74.52a9.082,9.082,0,0,0,18.164,0V63.808a5.915,5.915,0,0,1,11.829,0V99.036a9.082,9.082,0,1,0,18.164,0V77.672a1.584,1.584,0,0,0-1.585-1.584ZM52.554,3.493a1.118,1.118,0,0,1,1.58,0L81.882,31.242a1.117,1.117,0,0,1,0,1.579L62.89,51.812,55.482,44.4,58.691,41.2a1.584,1.584,0,1,0-2.24-2.24l-3.21,3.209L42.025,30.947l3.21-3.209a1.584,1.584,0,0,0-2.24-2.24l-3.21,3.209L38.079,27l12.63-12.63a1.584,1.584,0,0,0-2.24-2.24L35.838,24.761l-2.276-2.276ZM51.348,64.716,20.659,34.028a1.118,1.118,0,0,1,0-1.58l8.4-8.4a1.116,1.116,0,0,1,1.58,0L61.331,54.733a1.118,1.118,0,0,1,0,1.58l-8.4,8.4a1.116,1.116,0,0,1-1.58,0Zm0,0" transform="translate(-0.5 -0.001)" fill="#fff"/>
  <path id="Path_1599" data-name="Path 1599" d="M138.3,173.109a1.659,1.659,0,0,0-2.347,2.346l17.554,17.554a1.659,1.659,0,1,0,2.346-2.347Zm0,0" transform="translate(-107.304 -136.564)" fill="#fff"/>
  <path id="Path_1600" data-name="Path 1600" d="M418.149,182.277h-.017a1.668,1.668,0,1,0,.017,0Zm0,0" transform="translate(-329.22 -143.842)" fill="#fff"/>
  <path id="Path_1601" data-name="Path 1601" d="M424.461,202.777a1.659,1.659,0,0,0,.037,3.319h.022a1.659,1.659,0,0,0-.021-3.319h-.021Zm0,0" transform="translate(-334.165 -160.019)" fill="#fff"/>
  <path id="Path_1602" data-name="Path 1602" d="M377.838,225.883a1.668,1.668,0,1,0,.017,0Zm0,0" transform="translate(-296.978 -178.253)" fill="#fff"/>
</svg>
