<svg id="_005-repair" data-name="005-repair" xmlns="http://www.w3.org/2000/svg" width="100" height="100" viewBox="0 0 100 100">
  <path id="Path_1609" data-name="Path 1609" d="M46.653,31.3a5.251,5.251,0,1,0,5.25,5.25A5.257,5.257,0,0,0,46.653,31.3Zm0,7.15a1.9,1.9,0,1,1,1.9-1.9A1.9,1.9,0,0,1,46.653,38.454Zm0,0" transform="translate(-32.242 -24.379)" fill="#fff"/>
  <path id="Path_1610" data-name="Path 1610" d="M110.275,31.3a5.251,5.251,0,1,0,5.25,5.251A5.257,5.257,0,0,0,110.275,31.3Zm0,7.15a1.9,1.9,0,1,1,1.9-1.9A1.9,1.9,0,0,1,110.275,38.454Zm0,0" transform="translate(-84.789 -24.379)" fill="#fff"/>
  <path id="Path_1611" data-name="Path 1611" d="M173.9,31.3a5.251,5.251,0,1,0,5.25,5.251A5.257,5.257,0,0,0,173.9,31.3Zm0,7.15a1.9,1.9,0,1,1,1.9-1.9A1.9,1.9,0,0,1,173.9,38.454Zm0,0" transform="translate(-136.156 -24.379)" fill="#fff"/>
  <path id="Path_1612" data-name="Path 1612" d="M94.576,0H5.423A5.43,5.43,0,0,0,0,5.424V70.71a5.43,5.43,0,0,0,5.424,5.424h9.543a1.479,1.479,0,0,0,.121,1.955L22.194,85.2a30.327,30.327,0,0,0-1.4,3.364H10.749A1.479,1.479,0,0,0,9.27,90.039v8.482A1.479,1.479,0,0,0,10.749,100H39.94a1.479,1.479,0,0,0,1.479-1.479,8.185,8.185,0,1,1,16.37,0A1.479,1.479,0,0,0,59.269,100H88.461a1.479,1.479,0,0,0,1.479-1.479V90.039a1.479,1.479,0,0,0-1.479-1.479H78.411a30.326,30.326,0,0,0-1.4-3.364l7.108-7.108a1.48,1.48,0,0,0,.12-1.955H94.575A5.43,5.43,0,0,0,100,70.71v-36.6a1.479,1.479,0,1,0-2.958,0v36.6a2.468,2.468,0,0,1-2.466,2.465H81.3l-8.719-8.719V54.339A1.48,1.48,0,0,0,71.1,52.86H68.441V43.744l2.087-1.927a1.479,1.479,0,0,0,.41-1.526l-3.55-11.44a1.48,1.48,0,0,0-1.413-1.041H62.03a1.48,1.48,0,0,0-1.413,1.041l-3.55,11.44a1.479,1.479,0,0,0,.41,1.526l2.088,1.927V52.86H56.9a1.479,1.479,0,0,0-1.479,1.479v3.846H43.786V55.938l5.681-5.681a1.479,1.479,0,0,0,.433-1.046V37.08a1.478,1.478,0,0,0-.44-1.052l-7.889-7.791a1.479,1.479,0,0,0-2.519,1.052V42.477L35.206,44.9,31.36,42.477v-.843a1.479,1.479,0,1,0-2.959,0v1.659a1.479,1.479,0,0,0,.691,1.252L34.418,47.9a1.478,1.478,0,0,0,1.576,0l5.325-3.353a1.479,1.479,0,0,0,.691-1.252V32.829L46.942,37.7V48.6l-5.681,5.681a1.479,1.479,0,0,0-.433,1.047v2.889a1.48,1.48,0,0,0-1.183,1.45v10.05a30.334,30.334,0,0,0-3.365,1.395l-6.695-6.695V55.325a1.479,1.479,0,0,0-.433-1.047L23.471,48.6V37.7L28.4,32.829v1.876a1.479,1.479,0,0,0,2.959,0V29.29a1.48,1.48,0,0,0-2.519-1.053l-7.89,7.791a1.478,1.478,0,0,0-.439,1.052V49.211a1.479,1.479,0,0,0,.433,1.046l5.681,5.681v8.518l-8.719,8.719H5.423A2.467,2.467,0,0,1,2.958,70.71V21.5H97.041v5.724a1.479,1.479,0,0,0,2.959,0V5.424A5.43,5.43,0,0,0,94.576,0ZM62.048,42.01,60.17,40.276l2.951-9.507h1.765l2.95,9.507L65.959,42.01a1.481,1.481,0,0,0-.476,1.087V52.86H62.525V43.1a1.481,1.481,0,0,0-.477-1.087Zm7.577,13.808v8.6L62.93,71.11a30.487,30.487,0,0,0-3.365-1.4V59.665a1.48,1.48,0,0,0-1.183-1.45v-2.4H69.625ZM36.69,74.221A27.4,27.4,0,0,1,41.556,72.2,1.48,1.48,0,0,0,42.6,70.788V61.144h14v9.644A1.48,1.48,0,0,0,57.654,72.2a27.4,27.4,0,0,1,4.866,2.018,1.48,1.48,0,0,0,1.742-.259l6.821-6.821,8.559,8.56,0,0,1.341,1.34-6.821,6.821a1.48,1.48,0,0,0-.259,1.742,27.35,27.35,0,0,1,2.018,4.866,1.479,1.479,0,0,0,1.414,1.047h9.644v5.523H71.942A22.4,22.4,0,0,0,40.5,78.062a1.48,1.48,0,0,0,1.2,2.7A19.44,19.44,0,0,1,68.977,97.041H60.651a11.145,11.145,0,0,0-22.092,0H30.232a19.219,19.219,0,0,1,6.087-12.7A1.479,1.479,0,0,0,34.3,82.188,22.482,22.482,0,0,0,27.27,97.041H12.228V91.518h9.644a1.48,1.48,0,0,0,1.415-1.047,27.351,27.351,0,0,1,2.018-4.866,1.48,1.48,0,0,0-.259-1.742l-6.821-6.821,1.341-1.34,0,0,8.559-8.56,6.821,6.821a1.48,1.48,0,0,0,1.742.259ZM2.958,18.54V5.424A2.468,2.468,0,0,1,5.423,2.959H94.576a2.468,2.468,0,0,1,2.465,2.465V18.54Zm0,0" transform="translate(0)" fill="#fff"/>
</svg>
