<svg id="_006-domain-registration" data-name="006-domain-registration" xmlns="http://www.w3.org/2000/svg" width="100" height="90.426" viewBox="0 0 100 90.426">
  <path id="Path_1613" data-name="Path 1613" d="M98.4,22.5H1.6A1.6,1.6,0,0,0,0,24.1V111.33a1.6,1.6,0,0,0,1.6,1.6H98.4a1.6,1.6,0,0,0,1.6-1.6V94.309a1.6,1.6,0,0,0-3.191,0v15.426H3.191V38.457H96.809V87.926a1.6,1.6,0,0,0,3.191,0V24.1A1.6,1.6,0,0,0,98.4,22.5ZM3.191,25.691H62.234v9.574H3.191Zm62.234,9.574V25.691H96.809v9.574Z" transform="translate(0 -22.5)" fill="#fff"/>
  <path id="Path_1614" data-name="Path 1614" d="M375.27,52a1.77,1.77,0,1,0,1.77,1.77A1.772,1.772,0,0,0,375.27,52Z" transform="translate(-294.143 -45.473)" fill="#fff"/>
  <path id="Path_1615" data-name="Path 1615" d="M334.27,52a1.77,1.77,0,1,0,1.77,1.77A1.772,1.772,0,0,0,334.27,52Z" transform="translate(-261.855 -45.473)" fill="#fff"/>
  <path id="Path_1616" data-name="Path 1616" d="M416.27,52a1.77,1.77,0,1,0,1.77,1.77A1.772,1.772,0,0,0,416.27,52Z" transform="translate(-326.779 -45.473)" fill="#fff"/>
  <path id="Path_1617" data-name="Path 1617" d="M96.523,169.5a1.659,1.659,0,0,0,1.384-1.17l3.817-12.742a1.659,1.659,0,0,0-3.179-.952l-2.738,9.139-2.639-4.4a1.659,1.659,0,0,0-2.847,0l-2.639,4.4-2.737-9.137a1.659,1.659,0,0,0-3.179.952l3.817,12.74a1.659,1.659,0,0,0,3.013.377l3.149-5.256,3.149,5.256A1.66,1.66,0,0,0,96.523,169.5Z" transform="translate(-64.479 -125.818)" fill="#fff"/>
  <path id="Path_1618" data-name="Path 1618" d="M187.806,169.492a1.659,1.659,0,0,0,1.629-.794l3.149-5.256,3.149,5.256a1.659,1.659,0,0,0,3.013-.377l3.817-12.742a1.659,1.659,0,0,0-3.179-.952l-2.738,9.139-2.639-4.4a1.659,1.659,0,0,0-2.847,0l-2.639,4.4-2.737-9.137a1.659,1.659,0,0,0-3.179.952l3.817,12.741A1.66,1.66,0,0,0,187.806,169.492Z" transform="translate(-144.069 -125.812)" fill="#fff"/>
  <path id="Path_1619" data-name="Path 1619" d="M302.286,153.508a1.66,1.66,0,0,0-2.066,1.113l-2.738,9.138-2.639-4.4a1.659,1.659,0,0,0-2.847,0l-2.639,4.4-2.737-9.137a1.659,1.659,0,0,0-3.179.952l3.817,12.74a1.659,1.659,0,0,0,3.013.377l3.149-5.256,3.149,5.256a1.659,1.659,0,0,0,3.013-.377l3.817-12.742A1.659,1.659,0,0,0,302.286,153.508Z" transform="translate(-223.655 -125.807)" fill="#fff"/>
  <path id="Path_1620" data-name="Path 1620" d="M93.868,262.706a1.659,1.659,0,0,0-1.659-1.659h-8.85a1.659,1.659,0,0,0-1.659,1.659v8.85a1.659,1.659,0,0,0,1.659,1.659h8.85a1.659,1.659,0,0,0,1.659-1.659ZM90.55,269.9H85.019v-5.531H90.55Z" transform="translate(-64.409 -210.593)" fill="#fff"/>
  <path id="Path_1621" data-name="Path 1621" d="M92.209,331.047h-8.85a1.659,1.659,0,0,0-1.659,1.659v8.85a1.659,1.659,0,0,0,1.659,1.659h8.85a1.659,1.659,0,0,0,1.659-1.659v-8.85A1.659,1.659,0,0,0,92.209,331.047ZM90.55,339.9H85.019v-5.531H90.55Z" transform="translate(-64.409 -266.386)" fill="#fff"/>
  <path id="Path_1622" data-name="Path 1622" d="M337.509,281.047h-6.637a1.659,1.659,0,0,0,0,3.319h6.637a1.659,1.659,0,0,0,0-3.319Z" transform="translate(-259.462 -226.117)" fill="#fff"/>
  <path id="Path_1623" data-name="Path 1623" d="M186,281.047H153.359a1.659,1.659,0,1,0,0,3.319H186a1.659,1.659,0,1,0,0-3.319Z" transform="translate(-120.103 -226.117)" fill="#fff"/>
  <path id="Path_1624" data-name="Path 1624" d="M337.509,351.047h-6.637a1.659,1.659,0,0,0,0,3.319h6.637a1.659,1.659,0,0,0,0-3.319Z" transform="translate(-259.462 -281.245)" fill="#fff"/>
  <path id="Path_1625" data-name="Path 1625" d="M186,351.047H153.359a1.659,1.659,0,1,0,0,3.319H186a1.659,1.659,0,1,0,0-3.319Z" transform="translate(-120.103 -281.245)" fill="#fff"/>
</svg>
