<svg id="Location" xmlns="http://www.w3.org/2000/svg" width="10.965" height="15.594" viewBox="0 0 10.965 15.594">
  <path id="Path_1" data-name="Path 1" d="M158.482,215.89a5.483,5.483,0,0,0-4.664,8.365l4.352,7.013a.457.457,0,0,0,.388.216h0a.457.457,0,0,0,.388-.222l4.241-7.081a5.483,5.483,0,0,0-4.709-8.291Zm3.925,7.822-3.856,6.438-3.956-6.376a4.572,4.572,0,1,1,7.812-.062Zm0,0" transform="translate(-153 -215.89)" fill="#4b647e"/>
  <path id="Path_2" data-name="Path 2" d="M227.741,287.89a2.741,2.741,0,1,0,2.741,2.741,2.744,2.744,0,0,0-2.741-2.741Zm0,4.575a1.833,1.833,0,1,1,1.83-1.833,1.835,1.835,0,0,1-1.83,1.833Zm0,0" transform="translate(-222.259 -285.149)" fill="#4b647e"/>
</svg>
