<svg id="Phone" xmlns="http://www.w3.org/2000/svg" xmlns:xlink="http://www.w3.org/1999/xlink" width="13.941" height="14.012" viewBox="0 0 13.941 14.012">
  <defs>
    <clipPath id="clip-path">
      <rect id="Rectangle_1" data-name="Rectangle 1" width="13.941" height="14.012" transform="translate(0 0)" fill="#4b647e"/>
    </clipPath>
  </defs>
  <g id="Group_1" data-name="Group 1" transform="translate(0 0)" clip-path="url(#clip-path)">
    <path id="Path_1" data-name="Path 1" d="M119.286,261.522a1.372,1.372,0,0,0-.995-.456,1.418,1.418,0,0,0-1.006.453l-.93.927c-.077-.041-.153-.079-.227-.118-.106-.053-.206-.1-.291-.156a10.108,10.108,0,0,1-2.422-2.207,5.972,5.972,0,0,1-.795-1.254c.241-.221.465-.45.683-.671l.247-.25a1.35,1.35,0,0,0,0-2.037l-.8-.8c-.091-.091-.185-.185-.274-.279-.176-.182-.362-.371-.553-.548a1.393,1.393,0,0,0-.986-.433,1.442,1.442,0,0,0-1,.433l-.006.006-1,1.009a2.154,2.154,0,0,0-.639,1.369,5.16,5.16,0,0,0,.377,2.184,12.675,12.675,0,0,0,2.251,3.755,13.853,13.853,0,0,0,4.612,3.611,7.188,7.188,0,0,0,2.59.765c.062,0,.127.006.185.006a2.217,2.217,0,0,0,1.7-.73c0-.006.009-.009.012-.015a6.711,6.711,0,0,1,.515-.533c.127-.121.256-.247.383-.38a1.468,1.468,0,0,0,.444-1.018,1.414,1.414,0,0,0-.453-1.009Zm1.053,3.1s0,0,0,0c-.115.124-.232.236-.359.359a7.751,7.751,0,0,0-.568.589,1.418,1.418,0,0,1-1.107.468c-.044,0-.091,0-.135,0a6.386,6.386,0,0,1-2.3-.689,13.077,13.077,0,0,1-4.344-3.4,11.951,11.951,0,0,1-2.119-3.529,4.2,4.2,0,0,1-.33-1.842,1.351,1.351,0,0,1,.406-.874l1-1a.67.67,0,0,1,.447-.209.63.63,0,0,1,.43.206l.009.009c.179.168.35.341.53.527.091.094.185.188.28.286l.8.8a.562.562,0,0,1,0,.912c-.085.085-.168.171-.253.253-.247.253-.483.489-.739.718-.006.006-.012.009-.015.015a.6.6,0,0,0-.153.668l.009.027a6.454,6.454,0,0,0,.951,1.551l0,0a10.8,10.8,0,0,0,2.613,2.378,4,4,0,0,0,.362.2c.106.053.206.1.291.156.012.006.023.015.035.021a.639.639,0,0,0,.291.074.629.629,0,0,0,.447-.2l1.006-1.006a.665.665,0,0,1,.444-.221.6.6,0,0,1,.424.215l.006.006,1.622,1.622a.582.582,0,0,1,0,.921Zm0,0" transform="translate(-108.265 -252.852)" fill="#4b647e"/>
    <path id="Path_2" data-name="Path 2" d="M304.283,301.3a3.788,3.788,0,0,1,3.084,3.084.4.4,0,0,0,.391.33.527.527,0,0,0,.068-.006.4.4,0,0,0,.327-.459,4.579,4.579,0,0,0-3.732-3.732.4.4,0,0,0-.459.324.393.393,0,0,0,.321.459Zm0,0" transform="translate(-296.747 -297.946)" fill="#4b647e"/>
    <path id="Path_3" data-name="Path 3" d="M313.626,237.916a7.541,7.541,0,0,0-6.145-6.145.4.4,0,1,0-.13.783,6.736,6.736,0,0,1,5.492,5.492.4.4,0,0,0,.391.33.512.512,0,0,0,.068-.006.39.39,0,0,0,.324-.453Zm0,0" transform="translate(-299.698 -231.732)" fill="#4b647e"/>
  </g>
</svg>
