<svg xmlns="http://www.w3.org/2000/svg" xmlns:xlink="http://www.w3.org/1999/xlink" width="703.973" height="455.935" viewBox="0 0 703.973 455.935">
  <defs>
    <linearGradient id="linear-gradient" x1="0.5" y1="1" x2="0.5" gradientUnits="objectBoundingBox">
      <stop offset="0" stop-color="gray" stop-opacity="0.251"/>
      <stop offset="0.54" stop-color="gray" stop-opacity="0.122"/>
      <stop offset="1" stop-color="gray" stop-opacity="0.102"/>
    </linearGradient>
    <linearGradient id="linear-gradient-2" x1="-18.117" y1="168.355" x2="-18.117" y2="167.355" xlink:href="#linear-gradient"/>
    <linearGradient id="linear-gradient-3" y2="0" xlink:href="#linear-gradient"/>
  </defs>
  <g id="undraw_about_me_wa29" transform="translate(-0.102 -0.095)">
    <ellipse id="Ellipse_55" data-name="Ellipse 55" cx="326.299" cy="18.697" rx="326.299" ry="18.697" transform="translate(11.959 418.635)" fill="#6c63ff" opacity="0.1"/>
    <g id="Group_332" data-name="Group 332" transform="translate(595.919 288.431)" opacity="0.2">
      <path id="Path_1526" data-name="Path 1526" d="M1015.841,791.118a10.7,10.7,0,0,1-1.043,1.61q-5.211-3.673-10.6-7.2c.072-.151.151-.308.235-.458a10.158,10.158,0,0,1,3.619-3.932,6.05,6.05,0,0,1,6.031-.519,6.147,6.147,0,0,1,2.98,5.3,10.158,10.158,0,0,1-1.224,5.2Z" transform="translate(-1004.2 -641.378)" fill="#3f3d56"/>
      <ellipse id="Ellipse_56" data-name="Ellipse 56" cx="8.45" cy="6.454" rx="8.45" ry="6.454" transform="translate(1.131 142.084) rotate(-62.09)" fill="#3f3d56"/>
      <ellipse id="Ellipse_57" data-name="Ellipse 57" cx="8.45" cy="6.454" rx="8.45" ry="6.454" transform="translate(5.963 132.955) rotate(-62.09)" fill="#3f3d56"/>
      <ellipse id="Ellipse_58" data-name="Ellipse 58" cx="8.45" cy="6.454" rx="8.45" ry="6.454" transform="translate(10.802 123.824) rotate(-62.09)" fill="#3f3d56"/>
      <ellipse id="Ellipse_59" data-name="Ellipse 59" cx="8.45" cy="6.454" rx="8.45" ry="6.454" transform="translate(15.636 114.69) rotate(-62.09)" fill="#3f3d56"/>
      <path id="Path_1527" data-name="Path 1527" d="M1041.673,586.553a31.309,31.309,0,0,1-.47-4.222l16.285,5.477-16.285-8.444a31,31,0,0,1,11-21.984l15.748,22.835-12.25-25.374a30.929,30.929,0,1,1,28.951,54.494,30.88,30.88,0,0,1,.482,6.635l-24.819-.193,24.439,4.023a30.96,30.96,0,0,1-18,23.329,30.929,30.929,0,1,1-42.962-22.75,30.935,30.935,0,0,1,17.9-33.776Z" transform="translate(-1004.67 -550.143)" fill="#6c63ff"/>
      <path id="Path_1528" data-name="Path 1528" d="M1081.527,674.254a30.759,30.759,0,0,1-14.8,13.8,30.929,30.929,0,1,1-42.962-22.75C1022.57,658.711,1083.155,671.19,1081.527,674.254Z" transform="translate(-1004.662 -595.093)" opacity="0.1"/>
    </g>
    <g id="Group_333" data-name="Group 333" transform="translate(560.022 3.686)" opacity="0.2">
      <path id="Path_1529" data-name="Path 1529" d="M978.329,484.727a19.09,19.09,0,0,1-1.357,2.8q-9.114-4.861-18.462-9.445c.084-.259.181-.531.283-.79a16.405,16.405,0,0,1,5.006-7.033c2.937-2.352,6.478-3.239,9.65-2.039s5.2,4.222,5.832,7.907a16.411,16.411,0,0,1-.953,8.6Z" transform="translate(-950.17 -232.674)" fill="#3f3d56"/>
      <ellipse id="Ellipse_60" data-name="Ellipse 60" cx="13.685" cy="10.452" rx="13.685" ry="10.452" transform="matrix(0.356, -0.935, 0.935, 0.356, 9.715, 241.793)" fill="#3f3d56"/>
      <ellipse id="Ellipse_61" data-name="Ellipse 61" cx="13.685" cy="10.452" rx="13.685" ry="10.452" transform="matrix(0.356, -0.935, 0.935, 0.356, 15.67, 226.164)" fill="#3f3d56"/>
      <ellipse id="Ellipse_62" data-name="Ellipse 62" cx="13.685" cy="10.452" rx="13.685" ry="10.452" transform="matrix(0.356, -0.935, 0.935, 0.356, 21.615, 210.528)" fill="#3f3d56"/>
      <ellipse id="Ellipse_63" data-name="Ellipse 63" cx="13.685" cy="10.452" rx="13.685" ry="10.452" transform="matrix(0.356, -0.935, 0.935, 0.356, 27.57, 194.905)" fill="#3f3d56"/>
      <path id="Path_1530" data-name="Path 1530" d="M991.008,142.968a50.286,50.286,0,0,1-1.6-6.743l27.274,5.555-27.841-10.362a50.127,50.127,0,0,1,13.215-37.395l29.892,33.45-24.729-38.318a50.061,50.061,0,1,1,57.352,81.786,50.307,50.307,0,0,1,2.087,10.561l-39.91,4.632,40.067,1.6a50.1,50.1,0,0,1-24.276,41.068,50.061,50.061,0,1,1-73.583-28,50.061,50.061,0,0,1,22.027-57.859Z" transform="translate(-944.683 -78.04)" fill="#6c63ff"/>
      <path id="Path_1531" data-name="Path 1531" d="M1063.566,281.18a49.814,49.814,0,0,1-21.026,25.1,50.061,50.061,0,1,1-73.583-28C965.743,267.953,1065.569,275.932,1063.566,281.18Z" transform="translate(-944.683 -155.515)" opacity="0.1"/>
    </g>
    <g id="Group_334" data-name="Group 334" transform="translate(0.102 0.095)" opacity="0.2">
      <path id="Path_1532" data-name="Path 1532" d="M194.222,569.6a22.49,22.49,0,0,0,1.206,3.5q11.46-4.391,23.179-8.444c-.066-.32-.133-.651-.217-.977a19.549,19.549,0,0,0-4.867-9.047c-3.124-3.209-7.171-4.777-11.062-3.824s-6.755,4.222-8.052,8.444A19.6,19.6,0,0,0,194.222,569.6Z" transform="translate(-86.695 -261.961)" fill="#3f3d56"/>
      <ellipse id="Ellipse_64" data-name="Ellipse 64" cx="12.431" cy="16.273" rx="12.431" ry="16.273" transform="translate(98.982 272.494) rotate(-13.72)" fill="#3f3d56"/>
      <ellipse id="Ellipse_65" data-name="Ellipse 65" cx="12.431" cy="16.273" rx="12.431" ry="16.273" transform="translate(94.263 253.181) rotate(-13.72)" fill="#3f3d56"/>
      <ellipse id="Ellipse_66" data-name="Ellipse 66" cx="12.431" cy="16.273" rx="12.431" ry="16.273" transform="translate(89.55 233.86) rotate(-13.72)" fill="#3f3d56"/>
      <ellipse id="Ellipse_67" data-name="Ellipse 67" cx="12.431" cy="16.273" rx="12.431" ry="16.273" transform="translate(84.83 214.535) rotate(-13.72)" fill="#3f3d56"/>
      <path id="Path_1533" data-name="Path 1533" d="M130.021,156.244a59.024,59.024,0,0,0,2.883-7.72l-33,2.521,34.379-8.118a59.6,59.6,0,0,0-10.078-46.1L83.989,131.956l34.843-41.568A59.542,59.542,0,1,0,39.1,178.446,59.9,59.9,0,0,0,35.074,190.6L81.486,201.95l-47.515-4.023A59.6,59.6,0,0,0,56.546,249.96a59.536,59.536,0,1,0,90.93-22.2,59.536,59.536,0,0,0-17.491-71.52Z" transform="translate(-16.342 -72.085)" fill="#6c63ff"/>
      <path id="Path_1534" data-name="Path 1534" d="M47.99,310.875A59.283,59.283,0,0,0,69.1,343.62a59.536,59.536,0,1,0,90.929-22.2C165.385,309.693,46.416,304.416,47.99,310.875Z" transform="translate(-28.896 -165.745)" opacity="0.1"/>
    </g>
    <path id="Path_1535" data-name="Path 1535" d="M684.662,185.7H100.375a5.211,5.211,0,0,0-5.205,5.223v357.59a10.513,10.513,0,0,0,10.495,10.531H679.372a10.513,10.513,0,0,0,10.495-10.531V190.923A5.217,5.217,0,0,0,684.662,185.7Z" transform="translate(-47.524 -117.079)" fill="url(#linear-gradient)"/>
    <path id="Path_1536" data-name="Path 1536" d="M689.122,222.51V561.017a10.41,10.41,0,0,1-10.4,10.4H109.66a10.41,10.41,0,0,1-10.41-10.41V222.51Z" transform="translate(-49.143 -131.688)" fill="#fff"/>
    <path id="Path_1537" data-name="Path 1537" d="M689.122,194.173v15.042H99.25V194.173a5.163,5.163,0,0,1,5.163-5.163H683.959a5.163,5.163,0,0,1,5.163,5.163Z" transform="translate(-49.143 -118.393)" fill="#ededf4"/>
    <circle id="Ellipse_68" data-name="Ellipse 68" cx="2.413" cy="2.413" r="2.413" transform="translate(57.043 78.156)" fill="#fa5959" opacity="0.8"/>
    <circle id="Ellipse_69" data-name="Ellipse 69" cx="2.413" cy="2.413" r="2.413" transform="translate(63.678 78.156)" fill="#fed253" opacity="0.8"/>
    <circle id="Ellipse_70" data-name="Ellipse 70" cx="2.413" cy="2.413" r="2.413" transform="translate(70.312 78.156)" fill="#8ccf4d" opacity="0.8"/>
    <rect id="Rectangle_202" data-name="Rectangle 202" width="2.413" height="3.619" transform="translate(379.374 59.58) rotate(90)" fill="url(#linear-gradient-2)"/>
    <rect id="Rectangle_203" data-name="Rectangle 203" width="56.695" height="6.031" transform="translate(185.766 120.491)" fill="#ededf4"/>
    <rect id="Rectangle_204" data-name="Rectangle 204" width="318.458" height="6.031" transform="translate(185.766 137.982)" fill="#ededf4"/>
    <rect id="Rectangle_205" data-name="Rectangle 205" width="318.458" height="6.031" transform="translate(185.766 155.473)" fill="#ededf4"/>
    <rect id="Rectangle_206" data-name="Rectangle 206" width="318.458" height="6.031" transform="translate(185.766 172.964)" fill="#ededf4"/>
    <rect id="Rectangle_207" data-name="Rectangle 207" width="318.458" height="6.031" transform="translate(185.766 190.455)" fill="#ededf4"/>
    <rect id="Rectangle_208" data-name="Rectangle 208" width="196.624" height="151.991" transform="translate(246.58 223.821)" fill="#ededf4"/>
    <path id="Path_1538" data-name="Path 1538" d="M600.133,506.044c-.253,0-.507.036-.766.042a3.363,3.363,0,0,0,.084-1.074,10.253,10.253,0,0,0-1.206-4.349,18.876,18.876,0,0,0-1.5-2.268c-1.641-2.268-3.16-4.584-4.964-6.725a10.813,10.813,0,0,1-1.912-2.817,13.779,13.779,0,0,0-.651-1.635,3.516,3.516,0,0,0-3.287-1.6,5.217,5.217,0,0,0-3.329,1.761c-.507.543-.923,1.381-.5,2s1.339.694,1.393,1.369c0,.362,0,.953-.368,1.068a6.556,6.556,0,0,0-1.846.808,2.178,2.178,0,0,0-.971,1.689c1.043.157,1.918-.718,2.865-1.206a5.29,5.29,0,0,1,3.788-.139,3.546,3.546,0,0,1,1.3.657,4.589,4.589,0,0,1,.844,1.134,12.105,12.105,0,0,1,2.087,5.657l.531,3.39a22.014,22.014,0,0,0-2.34.314,14.7,14.7,0,0,1-6.23-.422c-2.111-.6-4.222-1.7-6.4-1.206-1.019.223-1.948.79-2.979.953a8.161,8.161,0,0,1-2.413-.127l-1.659-.265c-.054-.139-.1-.283-.139-.428a12.509,12.509,0,0,1-.47-3.721,6.634,6.634,0,0,0,5.67-9.4,5.626,5.626,0,0,0,2.141-2.129l-.422-.078.4-.6a.712.712,0,0,1-.115-1.128,2.273,2.273,0,0,0-1.14-.253c.127-.235-.078-.525-.326-.6a2.833,2.833,0,0,0-.784-.048,3.841,3.841,0,0,1-1.122-.259c-2.575-.887-5.368-1.665-7.992-.923a9.995,9.995,0,0,0-3.191,1.677,4.168,4.168,0,0,0-1.7,5.47,14.16,14.16,0,0,1,.85,3.07,9.745,9.745,0,0,1-.332,2.913,11.873,11.873,0,0,0,1.755.392,9.952,9.952,0,0,1-1.743,3.571,14.182,14.182,0,0,1-1.206,1.333h-.072a29.311,29.311,0,0,1-3.619.446c-1.279,0-2.533-.483-3.806-.392a10.319,10.319,0,0,0-2.214.5,33.916,33.916,0,0,1-10.2,1.363l-.416.042.386-2.461a12.1,12.1,0,0,1,2.087-5.657,4.589,4.589,0,0,1,.844-1.134,3.57,3.57,0,0,1,1.309-.657,5.271,5.271,0,0,1,3.782.139c.947.464,1.809,1.339,2.871,1.206a2.2,2.2,0,0,0-.977-1.689,6.557,6.557,0,0,0-1.846-.808c-.35-.115-.4-.706-.368-1.068.054-.676,1.013-.82,1.393-1.375s0-1.448-.5-2a5.223,5.223,0,0,0-3.329-1.755,3.5,3.5,0,0,0-3.281,1.6,12.836,12.836,0,0,0-.657,1.634,10.813,10.813,0,0,1-1.912,2.817c-1.809,2.141-3.323,4.457-4.964,6.725a20.087,20.087,0,0,0-1.5,2.262A10.4,10.4,0,0,0,531.653,506a3.4,3.4,0,0,0,.084,1.08.694.694,0,0,0-.066.271,1.254,1.254,0,0,0,.47.844,8.249,8.249,0,0,0,3.136,2.286,19.266,19.266,0,0,0,2.346.4c1.906.344,3.661,1.448,5.6,1.441,1.333,0,2.648-.531,3.963-.344,1.809.247,3.112,1.719,4.222,3.148a10.855,10.855,0,0,1,2.081,3.806c.428,1.683.163,3.577,1.062,5.06a3.444,3.444,0,0,1,.519,1,3.354,3.354,0,0,1-.368,1.641c-.76,2.334.9,4.825.73,7.238-.084,1.176-.6,2.286-.657,3.462-.091,1.514.525,3.209-.32,4.469.513-.265,1.031-.5,1.562-.712-2.533,7.425-4.825,15.078-4.65,22.883.133,5.06,1.206,10.633-1.7,14.789a5.838,5.838,0,0,0-.971,1.659,5.639,5.639,0,0,0,.151,2.509c.537,3.619-1.417,7.183-1.55,10.857a21.887,21.887,0,0,0,.217,3.384l.712,6.116a4.441,4.441,0,0,0-1.942.965,2.379,2.379,0,0,0-1.056,2.5,2.494,2.494,0,0,0,1.882,1.261,4.717,4.717,0,0,1,2.183.826,8.38,8.38,0,0,0,.657.651,2.412,2.412,0,0,0,1.46.271c.923-.036,1.809-.115,2.75-.241a1.092,1.092,0,0,0,.549-.175,1.206,1.206,0,0,0,.308-.9,11.99,11.99,0,0,0-.115-2.75c-.036-.175-.084-.344-.133-.519a10.705,10.705,0,0,0,.669-2.412c.187-1.206.217-2.467.3-3.7.181-3.148.6-6.273,1.086-9.4l.6-4.017c.187-1.321.38-2.642.6-3.963a124.613,124.613,0,0,1,5.2-21.05c.513-1.466,1.387-3.185,2.937-3.227l.923,1.809a63.778,63.778,0,0,1,2.859,7.165c1.206,3.13.8,6.785,2.413,9.729a13.349,13.349,0,0,1,.8,1.466,8.442,8.442,0,0,1,.495,2.455l1.068,10.856c.483,4.879,1,9.892,3.191,14.276a5.5,5.5,0,0,0,.482.808,14.025,14.025,0,0,0-.03,2.2.863.863,0,0,0,.856,1.08c.911.121,1.809.2,2.744.235a2.413,2.413,0,0,0,1.46-.271,6.739,6.739,0,0,0,.663-.651,4.693,4.693,0,0,1,2.177-.826,2.464,2.464,0,0,0,1.882-1.26,2.373,2.373,0,0,0-1.056-2.5,4.221,4.221,0,0,0-2.147-1,3.569,3.569,0,0,1-.977-.078,4.827,4.827,0,0,0,.072-1.206,6.035,6.035,0,0,1-.06-1.435,8.531,8.531,0,0,1,.495-1.411c.694-2.135-.784-4.306-1.3-6.49-.694-2.907.338-5.953.151-8.939-.289-4.686-3.559-9.083-2.69-13.7.694-3.691.1-7.485-.555-11.182l-2.413-13.758a15.244,15.244,0,0,0-.875-3.263,7.686,7.686,0,0,0,1.315-.35,9.414,9.414,0,0,0,.32-4.674c-.181-1.58-.6-3.124-.814-4.693a30.912,30.912,0,0,1-.314-3.806,15.334,15.334,0,0,1,.265-3.752,18.05,18.05,0,0,1,1.128-3.154,56.01,56.01,0,0,1,4.222-8.444c2.479-.193,4.879-.4,7.352-.6a10.213,10.213,0,0,0,1.761-.235,22.267,22.267,0,0,1,2.25-.645A3.015,3.015,0,0,0,595.1,511c.543-.247.875-.941,1.472-.965a2.556,2.556,0,0,0,.675,0c.265-.084.4-.374.6-.6.374-.416.983-.5,1.472-.772a2.135,2.135,0,0,0,.808-2.612Z" transform="translate(-220.741 -235.136)" fill="url(#linear-gradient-3)"/>
    <circle id="Ellipse_71" data-name="Ellipse 71" cx="6.635" cy="6.635" r="6.635" transform="translate(341.382 251.041)" fill="#a1616a"/>
    <path id="Path_1539" data-name="Path 1539" d="M578.992,508.234a16.534,16.534,0,0,1-2.262,2.286,17.968,17.968,0,0,0,12.968,2.135c-.163-.452-.754-.519-1.17-.748a2.527,2.527,0,0,1-1.025-1.616,12.629,12.629,0,0,1-.386-4.891,3.016,3.016,0,0,0,0-1.206,2.588,2.588,0,0,0-1.248-1.375,12.309,12.309,0,0,0-3.016-1.357c-1.1-.326-1.725-.477-1.767.8a10.163,10.163,0,0,1-2.093,5.971Z" transform="translate(-238.635 -242.302)" fill="#a1616a"/>
    <path id="Path_1540" data-name="Path 1540" d="M623.924,507.228l-.676-4.282a15.914,15.914,0,0,0-.537-2.545,16.415,16.415,0,0,0-1.544-3.088,4.561,4.561,0,0,0-.844-1.128,3.547,3.547,0,0,0-1.3-.657,5.253,5.253,0,0,0-3.776.145c-.947.458-1.809,1.327-2.865,1.176a2.159,2.159,0,0,1,.977-1.683,6.375,6.375,0,0,1,1.809-.808c.344-.109.4-.7.368-1.062-.054-.669-1.013-.814-1.393-1.363s0-1.441.495-1.99a5.193,5.193,0,0,1,3.323-1.743,3.486,3.486,0,0,1,3.281,1.586,12.761,12.761,0,0,1,.658,1.629,10.856,10.856,0,0,0,1.906,2.8c1.809,2.129,3.323,4.433,4.958,6.689a20.874,20.874,0,0,1,1.5,2.256,10.2,10.2,0,0,1,1.206,4.331,2.7,2.7,0,0,1-.2,1.369,2.123,2.123,0,0,1-1.809,1.037,6.412,6.412,0,0,1-2.165-.434l-2.63-.887a1.713,1.713,0,0,1-.844-.464.664.664,0,0,1,.109-.887Z" transform="translate(-252.783 -237.122)" fill="#a1616a"/>
    <path id="Path_1541" data-name="Path 1541" d="M539.4,508.8l.669-4.282a16.621,16.621,0,0,1,.543-2.545,16.059,16.059,0,0,1,1.544-3.088,4.266,4.266,0,0,1,.838-1.122,3.414,3.414,0,0,1,1.3-.657,5.271,5.271,0,0,1,3.782.139c.947.458,1.809,1.327,2.865,1.176a2.171,2.171,0,0,0-.977-1.683,6.447,6.447,0,0,0-1.809-.808c-.344-.109-.4-.7-.368-1.062.054-.669,1.007-.814,1.393-1.363s0-1.442-.5-1.984a5.187,5.187,0,0,0-3.323-1.749,3.492,3.492,0,0,0-3.281,1.586,12.739,12.739,0,0,0-.651,1.629,10.984,10.984,0,0,1-1.906,2.8c-1.809,2.129-3.323,4.433-4.964,6.689a20.5,20.5,0,0,0-1.49,2.256,10.294,10.294,0,0,0-1.206,4.331,2.732,2.732,0,0,0,.205,1.375,2.129,2.129,0,0,0,1.84,1.031,6.236,6.236,0,0,0,2.159-.434l2.636-.862a1.671,1.671,0,0,0,.838-.464A.664.664,0,0,0,539.4,508.8Z" transform="translate(-220.821 -237.745)" fill="#a1616a"/>
    <path id="Path_1542" data-name="Path 1542" d="M617.811,681.839a2.366,2.366,0,0,1,1.055,2.485,2.5,2.5,0,0,1-1.882,1.255,4.753,4.753,0,0,0-2.177.82,6.636,6.636,0,0,1-.657.621,2.37,2.37,0,0,1-1.46.271c-.917-.036-1.809-.115-2.744-.235a1.092,1.092,0,0,1-.549-.175,1.164,1.164,0,0,1-.3-.9,11.533,11.533,0,0,1,.109-2.738,3.92,3.92,0,0,1,1.321-2.334c.7-.543,2.823-2.153,3.619-1.122.211.277.127.657.422.887s.76.1,1.1.145a4.222,4.222,0,0,1,2.147,1.019Z" transform="translate(-251.466 -313.029)" fill="#3f3d56"/>
    <path id="Path_1543" data-name="Path 1543" d="M555.242,682.374a2.366,2.366,0,0,0-1.055,2.485,2.462,2.462,0,0,0,1.876,1.255,4.728,4.728,0,0,1,2.177.82,6.759,6.759,0,0,0,.663.651,2.412,2.412,0,0,0,1.454.271c.917-.036,1.809-.115,2.744-.241a1.075,1.075,0,0,0,.549-.175,1.164,1.164,0,0,0,.308-.9,11.813,11.813,0,0,0-.115-2.732,3.89,3.89,0,0,0-1.321-2.34c-.694-.543-2.817-2.153-3.619-1.122-.211.277-.127.663-.428.887s-.754.1-1.1.145a4.258,4.258,0,0,0-2.135,1Z" transform="translate(-229.65 -313.251)" fill="#3f3d56"/>
    <path id="Path_1544" data-name="Path 1544" d="M566.931,576.456c-2.72,7.841-5.362,15.953-5.157,24.27.133,5.036,1.206,10.585-1.695,14.717a5.753,5.753,0,0,0-.971,1.653,5.675,5.675,0,0,0,.145,2.5c.543,3.619-1.405,7.153-1.544,10.808a21.714,21.714,0,0,0,.217,3.365l.754,6.442c.253,2.207,3.1,3.112,5.3,3.42a8.208,8.208,0,0,0,1.864-4.337c.187-1.206.217-2.455.289-3.679.187-3.136.639-6.249,1.086-9.355l.6-4c.193-1.315.38-2.63.6-3.945a124.046,124.046,0,0,1,5.205-20.887c.513-1.466,1.387-3.172,2.931-3.215l.923,1.773a62.72,62.72,0,0,1,2.853,7.129c1.206,3.118.79,6.749,2.413,9.686a12.209,12.209,0,0,1,.8,1.453,8.385,8.385,0,0,1,.495,2.413l1.068,10.784c.483,4.855,1,9.843,3.185,14.2a3.3,3.3,0,0,0,1.007,1.327,2.733,2.733,0,0,0,3.016-.332A5.145,5.145,0,0,0,594.4,638.2a6.675,6.675,0,0,1-.06-1.429,9.5,9.5,0,0,1,.495-1.405c.7-2.123-.778-4.282-1.3-6.454-.694-2.9.338-5.923.157-8.9-.289-4.668-3.552-9.047-2.69-13.637.694-3.673.1-7.449-.549-11.128L588,581.559c-.386-2.159-.965-4.6-2.889-5.651a7.177,7.177,0,0,0-3.516-.6C576.611,575.3,571.846,576,566.931,576.456Z" transform="translate(-231.086 -271.688)" fill="#3f3d56"/>
    <path id="Path_1545" data-name="Path 1545" d="M600.208,519.179a8.625,8.625,0,0,1-5.066-1.049,10.17,10.17,0,0,0-1.864-.977,8.466,8.466,0,0,0-3.8.139,14.838,14.838,0,0,1-6.218-.422c-2.111-.6-4.222-1.695-6.393-1.206-1.019.223-1.942.784-2.973.947a7.916,7.916,0,0,1-2.413-.127l-6.876-1.074a18.8,18.8,0,0,0-4.717-.338,30.531,30.531,0,0,1-3.619.452c-1.273,0-2.527-.482-3.8-.4a10.352,10.352,0,0,0-2.208.5,33.975,33.975,0,0,1-10.175,1.357,15.277,15.277,0,0,0-7.654,2.654,1.206,1.206,0,0,0-.6.838,1.236,1.236,0,0,0,.476.832,8.17,8.17,0,0,0,3.13,2.28,18.958,18.958,0,0,0,2.34.4c1.9.35,3.655,1.441,5.585,1.441,1.333,0,2.642-.531,3.957-.344,1.809.247,3.106,1.707,4.222,3.13A10.96,10.96,0,0,1,553.621,532c.422,1.677.157,3.559,1.056,5.036a3.487,3.487,0,0,1,.519,1,3.317,3.317,0,0,1-.368,1.635c-.76,2.322.9,4.777.73,7.238-.084,1.164-.6,2.274-.657,3.438-.084,1.514.525,3.2-.32,4.451a21.622,21.622,0,0,1,10.525-2.3,13.2,13.2,0,0,1,1.809.169,25.338,25.338,0,0,1,3.426.953c2.521.8,5.3,1.375,7.781.458a9.254,9.254,0,0,0,.314-4.65c-.187-1.568-.573-3.112-.808-4.674a30.646,30.646,0,0,1-.314-3.788,15.188,15.188,0,0,1,.265-3.733,17.694,17.694,0,0,1,1.128-3.136,55.246,55.246,0,0,1,4.222-8.444c2.473-.2,4.867-.41,7.34-.6a11.369,11.369,0,0,0,1.755-.235,22.6,22.6,0,0,1,2.244-.639A2.96,2.96,0,0,0,595.1,524c.543-.247.881-.935,1.472-.953a2.829,2.829,0,0,0,.676,0c.265-.078.392-.374.6-.6.374-.416.983-.5,1.472-.766a2.123,2.123,0,0,0,.887-2.5Z" transform="translate(-220.816 -247.782)" fill="#6c63ff"/>
    <path id="Path_1546" data-name="Path 1546" d="M588.67,495.587a1.206,1.206,0,0,0,1.369.084,1.7,1.7,0,0,0,.507-.929,21.359,21.359,0,0,0,.525-2.292,2.514,2.514,0,0,1,.3-.959c.44-.676,1.393-.712,2.135-1.019a5.549,5.549,0,0,0,2.189-2.147l-.416-.084.392-.6a.7.7,0,0,1-.109-1.116,2.226,2.226,0,0,0-1.146-.259c.127-.229-.078-.519-.326-.6a2.576,2.576,0,0,0-.778-.042,3.849,3.849,0,0,1-1.122-.265c-2.569-.881-5.356-1.659-7.974-.917a9.915,9.915,0,0,0-3.191,1.671,4.144,4.144,0,0,0-1.695,5.428,14.039,14.039,0,0,1,.844,3.046,9.7,9.7,0,0,1-.326,2.907,9.483,9.483,0,0,0,2.2.428,3.16,3.16,0,0,0,2.111-.6,11.983,11.983,0,0,0,1.435-1.972,2.045,2.045,0,0,1,1.743-.917C588.013,494.525,588.134,495.207,588.67,495.587Z" transform="translate(-239.502 -235.517)" fill="#3f3d56"/>
    <path id="Path_1547" data-name="Path 1547" d="M481.6,692h-7.063a.923.923,0,0,0,0,1.809h1.411v11.984H451.781a.67.67,0,0,0-.537-.326h-7.057a.923.923,0,0,0,0,1.809H445.6v12.31H422.263a.748.748,0,0,0-.663-.651h-7.051a.917.917,0,0,0,0,1.809h.706v12.666H391.533a.6.6,0,0,0-.29-.078h-7.057a.923.923,0,0,0,0,1.81h.706v12.063h-23.42a.676.676,0,0,0-.6-.41h-7.057a.923.923,0,0,0,0,1.809h.706v13.36H514.067V692Z" transform="translate(-149.874 -318.009)" fill="#3f3d56"/>
    <path id="Path_1548" data-name="Path 1548" d="M174.72,295.528a16.7,16.7,0,0,0-2.358-2.521,2.027,2.027,0,0,1,.223-3.227c.29-.187.573-.386.856-.6,3.293-2.5,4.958-5.863,3.709-7.509s-4.934-.947-8.227,1.556a12.663,12.663,0,0,0-1.092.911,2.021,2.021,0,0,1-3.16-.6,17.058,17.058,0,0,0-1.622-2.581c-2.931-3.86-6.864-5.808-8.788-4.349s-1.116,5.778,1.809,9.65a16.638,16.638,0,0,0,1.9,2.111,2.039,2.039,0,0,1-.446,3.251h0c-3.619,2.069-5.663,5.187-4.638,6.978s4.777,1.568,8.366-.495a15.753,15.753,0,0,0,1.6-1.068,2.039,2.039,0,0,1,3.076.748,15.838,15.838,0,0,0,1.809,3.016c2.925,3.86,6.864,5.808,8.788,4.349S177.645,299.394,174.72,295.528Z" transform="translate(-70.324 -152.962)" fill="#6c63ff" opacity="0.1"/>
    <path id="Path_1549" data-name="Path 1549" d="M891.1,464.325a16.408,16.408,0,0,0,1.731-2.986,2.015,2.015,0,0,1,3.142-.724c.265.217.543.428.826.639,3.354,2.413,7.057,3.016,8.263,1.357s-.531-4.994-3.884-7.419q-.6-.428-1.206-.778a2.02,2.02,0,0,1-.332-3.2,16.4,16.4,0,0,0,1.99-2.3c2.841-3.926,3.552-8.257,1.6-9.65s-5.851.6-8.691,4.554a17,17,0,0,0-1.466,2.413,2.039,2.039,0,0,1-3.239.525h0c-3.016-2.829-6.635-3.9-8.028-2.413s-.1,5.024,2.919,7.841a14.578,14.578,0,0,0,1.49,1.206,2.039,2.039,0,0,1,.175,3.16,16.191,16.191,0,0,0-2.37,2.648c-2.841,3.926-3.552,8.257-1.592,9.65S888.255,468.258,891.1,464.325Z" transform="translate(-359.483 -217.531)" fill="#6c63ff" opacity="0.1"/>
    <ellipse id="Ellipse_72" data-name="Ellipse 72" cx="20.386" cy="3.92" rx="20.386" ry="3.92" transform="translate(514.314 442.556)" fill="#6c63ff"/>
    <ellipse id="Ellipse_73" data-name="Ellipse 73" cx="2.376" cy="3.106" rx="2.376" ry="3.106" transform="translate(531.986 441.705)" fill="#3f3d56"/>
    <ellipse id="Ellipse_74" data-name="Ellipse 74" cx="2.376" cy="3.106" rx="2.376" ry="3.106" transform="translate(531.986 437.906)" fill="#3f3d56"/>
    <ellipse id="Ellipse_75" data-name="Ellipse 75" cx="2.376" cy="3.106" rx="2.376" ry="3.106" transform="translate(531.986 434.112)" fill="#3f3d56"/>
    <ellipse id="Ellipse_76" data-name="Ellipse 76" cx="2.376" cy="3.106" rx="2.376" ry="3.106" transform="translate(531.986 430.312)" fill="#3f3d56"/>
    <ellipse id="Ellipse_77" data-name="Ellipse 77" cx="2.376" cy="3.106" rx="2.376" ry="3.106" transform="translate(531.986 426.512)" fill="#3f3d56"/>
    <ellipse id="Ellipse_78" data-name="Ellipse 78" cx="2.376" cy="3.106" rx="2.376" ry="3.106" transform="translate(531.986 422.719)" fill="#3f3d56"/>
    <ellipse id="Ellipse_79" data-name="Ellipse 79" cx="2.376" cy="3.106" rx="2.376" ry="3.106" transform="translate(531.986 418.919)" fill="#3f3d56"/>
    <path id="Path_1550" data-name="Path 1550" d="M903.5,716.467a12.058,12.058,0,0,0,.881-1.3l-6.23-1.025,6.743.054a11.363,11.363,0,0,0,.217-9.011l-9.047,4.692,8.347-6.134a11.369,11.369,0,1,0-18.782,12.726,11.631,11.631,0,0,0-1.3,2.075l8.1,4.222-8.637-2.9a11.393,11.393,0,0,0,1.809,10.676,11.369,11.369,0,1,0,17.877,0,11.381,11.381,0,0,0,0-14.059Z" transform="translate(-360.249 -320.432)" fill="#6c63ff"/>
    <path id="Path_1551" data-name="Path 1551" d="M883.188,740.09a11.357,11.357,0,0,0,2.413,7.033,11.369,11.369,0,1,0,17.877,0C905.016,745.187,883.188,738.818,883.188,740.09Z" transform="translate(-360.249 -337.028)" opacity="0.1"/>
    <ellipse id="Ellipse_80" data-name="Ellipse 80" cx="9.228" cy="1.773" rx="9.228" ry="1.773" transform="translate(153.938 445.638)" fill="#6c63ff"/>
    <ellipse id="Ellipse_81" data-name="Ellipse 81" cx="1.074" cy="1.405" rx="1.074" ry="1.405" transform="translate(161.942 445.252)" fill="#3f3d56"/>
    <ellipse id="Ellipse_82" data-name="Ellipse 82" cx="1.074" cy="1.405" rx="1.074" ry="1.405" transform="translate(161.942 443.533)" fill="#3f3d56"/>
    <ellipse id="Ellipse_83" data-name="Ellipse 83" cx="1.074" cy="1.405" rx="1.074" ry="1.405" transform="translate(161.942 441.814)" fill="#3f3d56"/>
    <ellipse id="Ellipse_84" data-name="Ellipse 84" cx="1.074" cy="1.405" rx="1.074" ry="1.405" transform="translate(161.942 440.095)" fill="#3f3d56"/>
    <ellipse id="Ellipse_85" data-name="Ellipse 85" cx="1.074" cy="1.405" rx="1.074" ry="1.405" transform="translate(161.942 438.376)" fill="#3f3d56"/>
    <ellipse id="Ellipse_86" data-name="Ellipse 86" cx="1.074" cy="1.405" rx="1.074" ry="1.405" transform="translate(161.942 436.657)" fill="#3f3d56"/>
    <ellipse id="Ellipse_87" data-name="Ellipse 87" cx="1.074" cy="1.405" rx="1.074" ry="1.405" transform="translate(161.942 434.938)" fill="#3f3d56"/>
    <path id="Path_1552" data-name="Path 1552" d="M287.048,770.378a4.866,4.866,0,0,0,.4-.6l-2.823-.464h3.052a5.152,5.152,0,0,0,.47-2.153,5.084,5.084,0,0,0-.374-1.924l-4.1,2.123,3.776-2.774a14.432,14.432,0,0,0-9.1,6.695l3.661,1.906-3.908-1.315a64.31,64.31,0,0,1,1.38,11.8,10.432,10.432,0,0,0,7.541-13.335Z" transform="translate(-120.016 -345.802)" fill="#6c63ff"/>
    <path id="Path_1553" data-name="Path 1553" d="M277.868,781.09a20.373,20.373,0,0,1,1.651,10.157,5.151,5.151,0,0,0,7.54-6.972C287.754,783.418,277.868,780.511,277.868,781.09Z" transform="translate(-120.028 -353.336)" opacity="0.1"/>
  </g>
</svg>
