<svg xmlns="http://www.w3.org/2000/svg" width="30.289" height="30.967" viewBox="0 0 30.289 30.967">
  <g id="waving-hand" transform="translate(-5.605 0)">
    <g id="Group_340" data-name="Group 340" transform="translate(25.429 0)">
      <g id="Group_339" data-name="Group 339" transform="translate(0 0)">
        <path id="Path_1556" data-name="Path 1556" d="M337.519,4.683a14.629,14.629,0,0,0-3.4-4.566.454.454,0,0,0-.609.673A13.719,13.719,0,0,1,336.7,5.072a.454.454,0,0,0,.82-.389Z" transform="translate(-333.366 0)" fill="#fff"/>
      </g>
    </g>
    <g id="Group_342" data-name="Group 342" transform="translate(24.031 2.244)">
      <g id="Group_341" data-name="Group 341">
        <path id="Path_1557" data-name="Path 1557" d="M313.242,40.215a12.04,12.04,0,0,0-2.22-2.986.454.454,0,1,0-.636.647,11.128,11.128,0,0,1,2.053,2.761.454.454,0,1,0,.8-.422Z" transform="translate(-310.251 -37.1)" fill="#fff"/>
      </g>
    </g>
    <g id="Group_344" data-name="Group 344" transform="translate(5.605 14.739)">
      <g id="Group_343" data-name="Group 343" transform="translate(0)">
        <path id="Path_1558" data-name="Path 1558" d="M9.653,248.233a13.715,13.715,0,0,1-3.184-4.282.454.454,0,0,0-.82.389,14.628,14.628,0,0,0,3.4,4.566.454.454,0,1,0,.609-.673Z" transform="translate(-5.605 -243.691)" fill="#fff"/>
      </g>
    </g>
    <g id="Group_346" data-name="Group 346" transform="translate(8.157 14.046)">
      <g id="Group_345" data-name="Group 345" transform="translate(0)">
        <path id="Path_1559" data-name="Path 1559" d="M50.7,235.242a11.13,11.13,0,0,1-2.053-2.761.454.454,0,1,0-.8.422,12.041,12.041,0,0,0,2.22,2.986.454.454,0,0,0,.636-.648Z" transform="translate(-47.792 -232.239)" fill="#fff"/>
      </g>
    </g>
    <g id="Group_348" data-name="Group 348" transform="translate(22.613 4.487)">
      <g id="Group_347" data-name="Group 347">
        <path id="Path_1560" data-name="Path 1560" d="M299.685,92.2l-.808-1.087a7.56,7.56,0,0,0,.3-3.105c-.2-1.679-.722-1.942-.888-2.909-.406-2.37.688-5.622.911-6.249l.017-.049c.478-1.51.793-2.508-.728-3.24-1.361-.655-2.793-.073-3.648,1.481a16.951,16.951,0,0,0-1.621,4.865l-5.6-7.53a.454.454,0,0,0-.728.541l6.265,8.426a.454.454,0,0,0,.816-.228,15.943,15.943,0,0,1,1.663-5.637c.233-.424,1.1-1.755,2.46-1.1.859.413.7.653.249,2.166-.332.934-1.384,4.179-.951,6.707.208,1.213.692,1.284.881,2.864a6.354,6.354,0,0,1-.068,1.925,3.794,3.794,0,0,1-.822,1.573.454.454,0,0,0,.7.58c.086-.1.165-.206.238-.307l.635.854a1.123,1.123,0,0,1-.231,1.569l-.954.71a.454.454,0,0,0,.271.818c.256,0,.3-.144,1.225-.8A2.031,2.031,0,0,0,299.685,92.2Z" transform="translate(-286.804 -74.198)" fill="#fff"/>
      </g>
    </g>
    <g id="Group_350" data-name="Group 350" transform="translate(18.688 24.218)">
      <g id="Group_349" data-name="Group 349">
        <path id="Path_1561" data-name="Path 1561" d="M235.735,402.878a.453.453,0,0,0-.635-.093l-4.38,3.257a1.135,1.135,0,0,1-1.586-.233,4.3,4.3,0,0,0-2.291-1.83,7.649,7.649,0,0,1-4.117-3.372.454.454,0,0,0-.728.541,8.487,8.487,0,0,0,4.587,3.7,3.485,3.485,0,0,1,1.821,1.5,2.043,2.043,0,0,0,2.855.42l4.38-3.257A.454.454,0,0,0,235.735,402.878Z" transform="translate(-221.909 -400.423)" fill="#fff"/>
      </g>
    </g>
    <g id="Group_353" data-name="Group 353" transform="translate(10.175 1.145)">
      <g id="Group_352" data-name="Group 352" transform="translate(0)">
        <g id="Group_351" data-name="Group 351">
          <path id="Path_1562" data-name="Path 1562" d="M102.781,250.186l0,0Z" transform="translate(-101.471 -236.196)" fill="#fff"/>
          <path id="Path_1563" data-name="Path 1563" d="M102.754,250.15Z" transform="translate(-101.448 -236.166)" fill="#fff"/>
          <path id="Path_1564" data-name="Path 1564" d="M95.447,30.1l-5.959-8.015h0a1.412,1.412,0,0,1,.4-2.049,1.441,1.441,0,0,1,1.888.4l.646.868a.454.454,0,0,0,.728-.541l-.646-.868a2.326,2.326,0,0,0-4.118.733,2.322,2.322,0,0,0-4.028,1.163,2.3,2.3,0,0,0,.319,1.59A2.326,2.326,0,0,0,82.8,27.111l.71.955A2.326,2.326,0,0,0,81.632,31.8l.835,1.123h0v0h0l.014.019-.01-.014.013.017h0L88.5,41.032a.454.454,0,0,0,.728-.541L82.36,31.257a1.415,1.415,0,0,1,1.252-2.277,1.394,1.394,0,0,1,.991.563l4.128,5.552a.454.454,0,0,0,.728-.541l-5.936-7.984a1.436,1.436,0,0,1,.185-1.94,1.411,1.411,0,0,1,2.057.225l5.6,7.534a.454.454,0,0,0,.728-.541L85.516,23a1.411,1.411,0,0,1,.321-2,1.443,1.443,0,0,1,1.97.346l6.912,9.3a.454.454,0,0,0,.728-.541ZM82.484,32.945Z" transform="translate(-81.16 -18.937)" fill="#fff"/>
        </g>
      </g>
    </g>
  </g>
</svg>
