<svg xmlns="http://www.w3.org/2000/svg" width="16" height="11.26" viewBox="0 0 16 11.26">
  <g id="Youtube" transform="translate(-173 -333.89)">
    <path id="Path_1" data-name="Path 1" d="M188.376,334.857c-.577-.686-1.644-.967-3.68-.967H177.3c-2.083,0-3.167.3-3.743,1.029-.561.713-.561,1.763-.561,3.216v2.77c0,2.815.666,4.245,4.3,4.245H184.7c1.766,0,2.745-.247,3.378-.853.649-.621.926-1.636.926-3.392v-2.77c0-1.533-.043-2.589-.624-3.278Zm-5.1,5.046-3.357,1.754a.516.516,0,0,1-.755-.457v-3.5a.516.516,0,0,1,.754-.458l3.357,1.743a.516.516,0,0,1,0,.916Zm0,0" fill="#fff"/>
  </g>
</svg>
